<?xml version="1.0" encoding="utf-8"?>
<!-- Generator: Adobe Illustrator 25.2.0, SVG Export Plug-In . SVG Version: 6.00 Build 0)  -->
<svg version="1.1" xmlns="http://www.w3.org/2000/svg" xmlns:xlink="http://www.w3.org/1999/xlink" x="0px" y="0px"
	 viewBox="0 0 1638 1418" style="enable-background:new 0 0 1638 1418;" xml:space="preserve">
<style type="text/css">
	.st0{fill:#1AB71A;}
	.st1{fill:#2E9FE5;}
	.st2{fill:#0F3E56;}
</style>
<g id="_x33_1">
	<g>
		<path class="st0" d="M1513.02,605.9c0,0-191.93,54.35-398.08,50.57L782.02,79.84L540.36,498.42
			C747.5,801.25,1222.94,779.95,1513.02,605.9z M926.59,633.42c-84.58-21.32-161.81-59.55-217.94-123.36L782.02,383L926.59,633.42z"
			/>
		<path class="st0" d="M1040.28,721.61c-212.95,0-385.09-77.55-486.07-218.6l222.39-385.2L1100.02,678l9.2,0.17
			c7.01,0.12,13.99,0.19,20.96,0.19c93.4-0.01,183.2-11.32,252.23-23.32c-107,42.91-226.44,66.56-342.09,66.56
			C1040.3,721.61,1040.3,721.61,1040.28,721.61z M683.3,517.47l7.71,8.77c53.53,60.85,129.63,104.05,226.18,128.37l37.31,9.41
			L776.59,355.88L683.3,517.47z"/>
		<path class="st0" d="M554.21,503.44c61.59,86.04,149.68,148.39,257.31,183.98c14.67-16.55,28.48-34.09,41.38-52.54
			c-66.55-25.36-120.86-61.57-161.88-108.2l-7.71-8.76l93.29-161.59L896,563.13c23.05-45.02,41.18-93.8,53.52-145.37l-172.92-299.5
			L554.21,503.44z"/>
		<path class="st1" d="M245.96,352.95C293.15,497.18,356.9,607.5,428.67,691.86L206.78,1076.2h1150.5l-140.87-243.97
			C768.1,900.62,473.38,687.12,245.96,352.95z M541.33,799.9c80.89,62.7,165.89,101.34,245.5,124.71H469.32L541.33,799.9z"/>
		<path class="st1" d="M229.54,1059.93l213.54-369.87l-7.44-8.74c-53.18-62.52-98.72-136.16-136.06-219.88
			c87.1,110.84,178.07,196.67,276.02,260.69c143.21,93.63,298.02,139.13,473.26,139.13c49.49,0,101.09-3.81,153.56-11.32
			l121.23,209.99H229.54z M435.71,940.89h462.3c-115.98-24.19-225.03-55.34-352.14-153.85l-14.73-11.43L435.71,940.89z"/>
		<path class="st1" d="M484.45,854.54l46.69-80.86l14.73,11.43c20.54,15.92,40.61,30.06,60.31,42.71
			c30.45-11.18,59.68-25.54,87.41-42.72c-40.27-18.23-79.56-39.78-117.99-64.89c-97.95-64.03-188.92-149.86-276.02-260.7
			c37.34,83.72,82.88,157.36,136.06,219.88l7.44,8.74l-90.91,157.48c31.27,6.79,63.51,10.38,96.49,10.38
			C460.69,855.99,472.61,855.48,484.45,854.54z"/>
		<g>
			<path class="st1" d="M898.01,940.89c-13.8-2.87-27.5-5.86-41.16-9.04H440.93l-5.22,9.04H898.01z"/>
			<polygon class="st1" points="446.02,693.9 442.91,690.24 232.48,1054.72 237.7,1054.72 			"/>
			<path class="st1" d="M575.6,725.75c143.21,93.62,298.02,139.12,473.26,139.12c49.49,0,101.09-3.81,153.56-11.3l116.01,200.94
				h5.22l-121.23-209.99c-52.47,7.51-104.08,11.3-153.56,11.3c-175.24,0-330.05-45.5-473.26-139.11
				c-97.95-64.03-188.92-149.86-276.01-260.69c3.26,7.32,6.68,14.46,10.07,21.63C393.69,582.39,481.42,664.19,575.6,725.75z"/>
		</g>
		<g>
			<path class="st0" d="M776.59,124.41l323.43,560.19l9.2,0.17c7.01,0.12,13.99,0.19,20.96,0.19c76.32,0,150.22-7.54,212.36-16.87
				c13.46-4.67,26.76-9.63,39.87-14.9c-69.03,12.01-158.83,23.32-252.23,23.32c-6.97,0-13.95-0.07-20.96-0.19l-9.2-0.16
				l-323.43-560.2L553.08,502.26c0.89,1.25,2.22,2.73,3.12,3.97L776.59,124.41z"/>
			<path class="st0" d="M689.1,530.13c53.53,60.85,129.63,104.05,226.17,128.38l37.32,9.4l-5.7-9.87l-31.61-7.97
				c-96.54-24.34-172.64-67.53-226.17-128.39l-4.79-5.42l-2.93,5.11L689.1,530.13z"/>
		</g>
		<g>
			<path class="st2" d="M328.17,1301.48h-73.57l-14.04,33.96h-37.58l70.63-158.47h36.22l70.86,158.47H342.2L328.17,1301.48z
				 M316.62,1273.64l-25.13-60.67l-25.13,60.67H316.62z"/>
			<path class="st2" d="M397.23,1176.97h71.99c51.84,0,87.38,31.24,87.38,79.23c0,47.99-35.54,79.23-87.38,79.23h-71.99V1176.97z
				 M467.41,1305.33c31.47,0,52.07-18.79,52.07-49.13c0-30.34-20.6-49.12-52.07-49.12h-33.5v98.25H467.41z"/>
			<path class="st2" d="M706.95,1306.01v29.43h-122.7v-158.47H704v29.43h-83.31v34.41h73.57v28.52h-73.57v36.67H706.95z"/>
			<path class="st2" d="M725.75,1256.21c0-47.77,36.67-81.95,86.03-81.95c27.39,0,50.26,9.96,65.2,28.07l-23.54,21.73
				c-10.64-12.22-24-18.56-39.84-18.56c-29.66,0-50.71,20.83-50.71,50.71c0,29.88,21.05,50.71,50.71,50.71
				c15.85,0,29.2-6.34,39.84-18.79l23.54,21.73c-14.94,18.34-37.81,28.3-65.42,28.3C762.43,1338.16,725.75,1303.97,725.75,1256.21z"
				/>
			<path class="st2" d="M1002.86,1301.48h-73.57l-14.04,33.96h-37.58l70.63-158.47h36.22l70.86,158.47h-38.49L1002.86,1301.48z
				 M991.32,1273.64l-25.13-60.67l-25.13,60.67H991.32z"/>
			<path class="st2" d="M1059.47,1319.82l12.45-27.62c13.36,9.73,33.28,16.53,52.29,16.53c21.73,0,30.56-7.24,30.56-16.98
				c0-29.66-92.14-9.28-92.14-68.14c0-26.94,21.73-49.35,66.78-49.35c19.92,0,40.3,4.75,55.01,14.04l-11.32,27.85
				c-14.71-8.38-29.88-12.45-43.92-12.45c-21.73,0-30.11,8.15-30.11,18.11c0,29.2,92.14,9.06,92.14,67.24
				c0,26.49-21.96,49.12-67.24,49.12C1098.86,1338.16,1073.51,1330.69,1059.47,1319.82z"/>
			<path class="st2" d="M1361.71,1176.97v158.47h-36.67v-64.97h-71.99v64.97h-36.67v-158.47h36.67v62.48h71.99v-62.48H1361.71z"/>
		</g>
	</g>
</g>
<g id="Layer_1">
</g>
</svg>
